<?xml version="1.0" encoding="UTF-8"?>
<svg width="159px" height="24px" viewBox="0 0 159 24" version="1.1" xmlns="http://www.w3.org/2000/svg" xmlns:xlink="http://www.w3.org/1999/xlink">
    <!-- Generator: Sketch 56.3 (81716) - https://sketch.com -->
    <title>logo</title>
    <desc>Created with Sketch.</desc>
    <g id="2.导航-Navigation" stroke="none" stroke-width="1" fill="none" fill-rule="evenodd">
        <g id="-" transform="translate(-120.000000, -198.000000)" fill="#D3A573">
            <g id="2.1.1顶部导航菜单" transform="translate(0.000000, 100.000000)">
                <g id="2.1.1.1顶部居中导航菜单" transform="translate(0.000000, 80.000000)">
                    <g id="logo" transform="translate(120.000000, 18.000000)">
                        <path d="M14.508169,16.2569697 C13.8771831,17.4149683 12.9498592,18.2989711 11.7228169,18.906723 C10.3369014,19.5821283 8.41126761,19.9192671 5.94704225,19.9192671 L4.21183099,19.9192671 L4.21183099,3.95760395 L6.06760563,3.95760395 C7.06478873,3.95760395 7.96394366,4.01510923 8.76732394,4.12899225 C9.56957746,4.24400282 10.296338,4.42666667 10.9498592,4.67811135 C11.6484507,4.95548978 12.2760563,5.30503171 12.8326761,5.72786469 C13.388169,6.15295278 13.8602817,6.66147992 14.2501408,7.25231853 C14.64,7.8420296 14.9374648,8.51630726 15.143662,9.27176885 C15.3509859,10.0294856 15.4535211,10.8796617 15.4535211,11.8200423 C15.4535211,13.6184919 15.1380282,15.0989711 14.508169,16.2569697 M17.8512676,5.17761804 C17.2157746,4.27219168 16.428169,3.48628612 15.4884507,2.82102889 C14.5487324,2.15577167 13.4659155,1.62920366 12.2388732,1.23794221 C11.8264789,1.1015081 11.3735211,0.984242424 10.8811268,0.885017618 C10.3876056,0.788047921 9.87830986,0.704608879 9.35098592,0.635828048 C8.82478873,0.568174771 8.2828169,0.517434813 7.72619718,0.48248062 C7.17070423,0.447526427 6.62309859,0.431740662 6.0856338,0.431740662 L0,0.431740662 L0,23.4473855 L5.46704225,23.4473855 C7.01408451,23.4473855 8.4056338,23.354926 9.64394366,23.170007 C10.8811268,22.9895983 11.9864789,22.7122199 12.9611268,22.3457646 C14.1295775,21.9105285 15.1414085,21.3512615 15.995493,20.6679634 C16.8495775,19.9857928 17.5560563,19.1965046 18.1183099,18.3034813 C18.6794366,17.408203 19.0985915,16.4204651 19.3723944,15.33463 C19.6484507,14.2533051 19.7859155,13.0919239 19.7859155,11.8527414 C19.7859155,10.544778 19.6225352,9.3326568 19.2957746,8.21412262 C18.9690141,7.09784355 18.4878873,6.08529951 17.8512676,5.17761804" id="Fill-1"></path>
                        <path d="M35.3250704,20.3157153 C34.1104225,20.3157153 33.0242254,20.1398168 32.0676056,19.7914024 C31.1109859,19.4418605 30.2997183,18.9220578 29.6349296,18.2342495 C28.9701408,17.5475687 28.4597183,16.6883721 28.1047887,15.6622974 C27.7498592,14.6362227 27.5729577,13.4466526 27.5729577,12.0924595 C27.5729577,10.7292459 27.7667606,9.51599718 28.1566197,8.45609584 C28.5464789,7.39506695 29.0873239,6.50317125 29.7814085,5.78040874 C30.4743662,5.05877378 31.3059155,4.50852713 32.2738028,4.12966878 C33.2416901,3.75081043 34.2997183,3.56138125 35.4456338,3.56138125 C36.2016901,3.56138125 36.9746479,3.61775899 37.7667606,3.73276956 C38.5566197,3.84778013 39.4107042,4.04735729 40.3267606,4.33601128 L40.3267606,0.757152925 C39.628169,0.516983791 38.8428169,0.329809725 37.971831,0.197885835 C37.1008451,0.065961945 36.1780282,-0.000563777308 35.204507,-0.000563777308 C33.3025352,0.0129668781 31.5966197,0.332064834 30.0901408,0.962367865 C28.583662,1.59379845 27.3284507,2.45976039 26.3256338,3.56138125 C25.3228169,4.66187456 24.555493,5.96307259 24.0225352,7.46610289 C23.4895775,8.96800564 23.223662,10.5973221 23.223662,12.3529246 C23.223662,14.0611698 23.4726761,15.622833 23.9707042,17.0390416 C24.4698592,18.4575053 25.2146479,19.6707541 26.2061972,20.6855532 C27.1966197,21.7014799 28.4315493,22.4851304 29.9098592,23.0421424 C31.388169,23.5991543 33.1019718,23.8765328 35.0501408,23.8765328 C36.0473239,23.8765328 37.0095775,23.8111346 37.9380282,23.6780832 C38.8664789,23.5461593 39.731831,23.3657505 40.5340845,23.1368569 L40.5340845,19.5072586 C39.7419718,19.772234 38.8946479,19.9718111 37.9898592,20.1082452 C37.0839437,20.248062 36.1960563,20.3157153 35.3250704,20.3157153" id="Fill-3"></path>
                        <path d="M56.6388732,14.0547428 L50.6940845,14.0547428 L51.4794366,12.0071036 C52.1115493,10.3901903 52.828169,8.37750529 53.6326761,5.96792107 L53.7014085,5.96792107 C54.5126761,8.36397463 55.2292958,10.3744045 55.8523944,12.0071036 L56.6388732,14.0547428 Z M51.7239437,0.431627907 L42.5960563,23.4472727 L47.0828169,23.4472727 L49.336338,17.5806061 L57.9977465,17.5806061 L60.2501408,23.4472727 L64.7019718,23.4472727 L55.5752113,0.431627907 L51.7239437,0.431627907 Z" id="Fill-6"></path>
                        <path d="M109.549296,8.7825229 C109.343099,9.24707541 109.00507,9.64397463 108.535211,9.96983791 C108.065352,10.2957012 107.445634,10.5505285 106.67831,10.7343199 C105.910986,10.9169838 104.96,11.0094433 103.824225,11.0094433 C103.423099,11.0094433 103.03662,11.0004228 102.664789,10.982382 C102.291831,10.9665962 101.985352,10.9406624 101.744225,10.9079634 L101.744225,3.9577167 L104.117183,3.9577167 C104.976901,3.9577167 105.700282,3.98816068 106.291831,4.05243129 C106.881127,4.11331924 107.376901,4.21479915 107.778028,4.35348837 C108.546479,4.6286117 109.08507,5.01198027 109.39493,5.50584919 C109.703662,5.99859056 109.858028,6.58266385 109.858028,7.26032417 C109.858028,7.80944327 109.755493,8.3179704 109.549296,8.7825229 M109.308169,1.01479915 C108.655775,0.821987315 107.913239,0.67427766 107.082817,0.577307963 C106.251268,0.480338266 105.28,0.431853418 104.169014,0.431853418 L97.5335211,0.431853418 L97.5335211,23.4474982 L101.744225,23.4474982 L101.744225,14.45074 C102.065352,14.4845666 102.409014,14.5082452 102.776338,14.5195208 C103.142535,14.5307963 103.515493,14.5353066 103.892958,14.5353066 C105.543662,14.5353066 107.00507,14.369556 108.277183,14.0369274 C109.549296,13.7042988 110.626479,13.2284708 111.508732,12.6105708 C112.390986,11.9915433 113.061408,11.2360817 113.52,10.3464412 C113.978592,9.45905567 114.207324,8.45891473 114.207324,7.34714588 C114.207324,5.7167019 113.783662,4.37603946 112.935211,3.32064834 C112.087887,2.26412967 110.877746,1.49739253 109.308169,1.01479915" id="Fill-8"></path>
                        <path d="M133.700958,13.6076674 C133.700958,15.2347287 133.506028,16.5077378 133.116169,17.4266949 C132.681239,18.4482593 132.04462,19.1834249 131.208563,19.6355743 C130.37138,20.0888513 129.386592,20.3154898 128.251944,20.3154898 C127.117296,20.3154898 126.13138,20.0888513 125.295324,19.6355743 C124.458141,19.1834249 123.822648,18.4482593 123.387718,17.4266949 C122.997859,16.5077378 122.80293,15.2347287 122.80293,13.6076674 L122.80293,0.432191684 L118.591099,0.432191684 L118.591099,13.9842706 C118.591099,14.9494574 118.645183,15.8210571 118.754479,16.5979422 C118.862648,17.3804651 119.044056,18.0919521 119.295324,18.7346582 C119.605183,19.5363495 120.017577,20.2568569 120.533634,20.8927977 C121.048563,21.5287385 121.673915,22.0665821 122.407437,22.5097111 C123.139831,22.9494574 123.988282,23.2888513 124.950535,23.5245102 C125.913915,23.757914 126.996732,23.8763073 128.200113,23.8763073 C129.403493,23.8763073 130.491944,23.757914 131.466592,23.5245102 C132.440113,23.2888513 133.302085,22.9494574 134.052507,22.5097111 C134.804056,22.0665821 135.439549,21.5287385 135.961239,20.8927977 C136.48293,20.2568569 136.897577,19.5363495 137.207437,18.7346582 C137.458704,18.0919521 137.640113,17.3804651 137.749408,16.5979422 C137.857577,15.8210571 137.912789,14.9494574 137.912789,13.9842706 L137.912789,0.432191684 L133.700958,0.432191684 L133.700958,13.6076674 Z" id="Fill-10"></path>
                        <path d="M158.368113,13.702382 C157.966986,12.9277519 157.422761,12.299704 156.73431,11.8193658 C156.048113,11.3367724 155.25938,10.9601691 154.371493,10.6918111 C153.483606,10.4234531 152.551775,10.183284 151.578254,9.97581395 C150.958535,9.85065539 150.374873,9.71422128 149.825014,9.56425652 C149.275155,9.41429175 148.787268,9.21809725 148.363606,8.97003524 C147.939944,8.72535588 147.604169,8.41302326 147.358535,8.0341649 C147.111775,7.65530655 146.987831,7.17271318 146.987831,6.58863989 C146.987831,5.57835095 147.363042,4.82288936 148.114592,4.31887245 C148.863887,3.81372798 149.933183,3.56115574 151.320225,3.56115574 C152.283606,3.56115574 153.311211,3.66714588 154.405296,3.87799859 C155.500507,4.09223397 156.643042,4.43275546 157.835155,4.90181818 L157.835155,1.29026075 C156.941634,0.911402396 155.875718,0.603579986 154.637408,0.361155743 C153.400225,0.12098661 152.168676,0.000338266385 150.942761,0.000338266385 C149.715718,0.000338266385 148.61262,0.146920366 147.633465,0.437829457 C146.653183,0.730993658 145.800225,1.17412262 145.071211,1.76383369 C144.343324,2.35354475 143.767549,3.09885835 143.345014,3.99864693 C142.920225,4.89956307 142.708394,5.9572093 142.708394,7.17271318 C142.708394,8.27320648 142.89093,9.1921635 143.258254,9.925074 C143.625577,10.6613672 144.117972,11.2646089 144.736563,11.7404369 C145.355155,12.2185201 146.071775,12.588358 146.885296,12.8589711 C147.698817,13.1273291 148.552901,13.3607329 149.447549,13.5546723 C150.122479,13.6933615 150.766986,13.8343058 151.38107,13.9752502 C151.994028,14.1207047 152.546141,14.3078788 153.039662,14.5345173 C153.532056,14.765666 153.921915,15.0610853 154.208113,15.4196476 C154.49431,15.7838478 154.637408,16.2574207 154.637408,16.8403665 C154.637408,17.5078788 154.483042,18.0648908 154.173183,18.5181677 C153.864451,18.9725722 153.45431,19.3288795 152.945014,19.5938548 C152.434592,19.8554475 151.858817,20.0448767 151.216563,20.1531219 C150.57431,20.2602396 149.921915,20.3154898 149.258254,20.3154898 C148.111211,20.3154898 146.999099,20.2038619 145.923042,19.9806061 C144.845859,19.7562227 143.73938,19.3976603 142.604732,18.9060465 L142.604732,22.466864 C143.406986,22.9145032 144.413183,23.2606624 145.62107,23.5064693 C146.831211,23.7534038 148.05938,23.8763073 149.308958,23.8763073 C150.74107,23.8763073 152.05938,23.7331078 153.262761,23.4478365 C154.466141,23.1614376 155.488113,22.7205638 156.33093,22.1308527 C157.173746,21.5400141 157.823887,20.7913178 158.281352,19.8858915 C158.74107,18.9793376 158.969803,17.9059056 158.969803,16.6689782 C158.969803,15.4636223 158.769239,14.4747569 158.368113,13.702382" id="Fill-12"></path>
                        <path d="M71.300507,0.713516561 C70.1838873,0.713516561 69.4920563,0.473347428 68.8047324,0.0944890768 L68.4971268,0.0944890768 L68.4971268,1.12281889 L68.4971268,20.8178154 L68.4971268,23.2533333 L68.4971268,23.2555884 C69.1844507,23.6367019 70.1838873,23.876871 71.300507,23.876871 C72.4182535,23.876871 73.4176901,23.6367019 74.1050141,23.2555884 L74.1050141,23.2533333 L74.1050141,20.8178154 L74.1050141,1.12281889 L74.1050141,0.0944890768 L73.7974085,0.0944890768 C73.1100845,0.473347428 72.4182535,0.713516561 71.300507,0.713516561" id="Fill-14"></path>
                        <path d="M86.1171831,0.0944890768 L85.8095775,0.0944890768 L85.8095775,1.12281889 L85.8095775,8.99878788 L85.8095775,20.8178154 L85.8095775,23.2533333 C86.4957746,23.6367019 87.496338,23.876871 88.6129577,23.876871 C89.7295775,23.876871 90.7290141,23.6367019 91.4174648,23.2555884 L91.4174648,20.8178154 L91.4174648,1.12281889 L91.4174648,0.0944890768 L91.1098592,0.0944890768 C90.4225352,0.473347428 89.7295775,0.713516561 88.6129577,0.713516561 C87.496338,0.713516561 86.804507,0.473347428 86.1171831,0.0944890768 Z" id="Fill-17"></path>
                        <polygon id="Fill-20" points="74.6235493 23.1985342 75.5181972 21.7631572 75.5181972 0.933840733 74.6235493 0.0949400987"></polygon>
                        <polygon id="Fill-22" points="91.9518873 23.1985342 92.828507 21.7631572 92.828507 0.933840733 91.9518873 0.0949400987"></polygon>
                        <polygon id="Fill-24" points="81.9453521 23.5662297 83.0157746 22.6190839 85.8101408 8.9982241 85.1453521 7.96087385"></polygon>
                        <path d="M84.6962254,7.79151515 L84.3953803,7.72949965 C83.6449577,7.96064834 82.9181972,8.05310782 81.8252394,7.82646934 C80.7322817,7.59757576 80.1024225,7.22097252 79.5086197,6.71019027 L79.2066479,6.64591966 L78.9970704,7.65282593 L76.3953803,20.1326004 L75.8984789,22.518506 C76.4934085,23.0315433 77.4229859,23.4712896 78.5170704,23.6979281 C79.6100282,23.9279493 80.6376338,23.8963777 81.3880563,23.665229 L81.3880563,23.6629739 L81.8849577,21.2781959 L84.4866479,8.80067653 L84.6962254,7.79151515 Z" id="Fill-26"></path>
                    </g>
                </g>
            </g>
        </g>
    </g>
</svg>